<?xml version="1.0" encoding="UTF-8" standalone="no"?>
<!DOCTYPE svg PUBLIC "-//W3C//DTD SVG 1.1//EN" "http://www.w3.org/Graphics/SVG/1.1/DTD/svg11.dtd">
<svg version="1.1" xmlns="http://www.w3.org/2000/svg" xmlns:xlink="http://www.w3.org/1999/xlink" preserveAspectRatio="xMidYMid meet" viewBox="0 0 50 50" width="50" height="50"><defs><path d="M4.55 4.22L45.54 4.22L45.54 45.3L4.55 45.3L4.55 4.22Z" id="b6j5FIrKcH"></path><path d="M42.43 6.25C43.29 6.25 43.99 6.95 43.99 7.81C43.99 14.98 43.99 34.92 43.99 42.09C43.99 42.95 43.29 43.65 42.43 43.65C35.22 43.65 15.16 43.65 7.96 43.65C7.09 43.65 6.4 42.95 6.4 42.09C6.4 34.92 6.4 14.98 6.4 7.81C6.4 6.95 7.09 6.25 7.96 6.25C15.16 6.25 35.22 6.25 42.43 6.25Z" id="aLDTtGlA"></path><path d="M34.28 25.15L43.41 7.22L25.14 7.22L6.88 7.22L16.01 25.15L25.14 43.07L34.28 25.15Z" id="a51USremC"></path></defs><g><g><g><use xlink:href="#b6j5FIrKcH" opacity="1" fill="#e01616" fill-opacity="1"></use></g><g><use xlink:href="#aLDTtGlA" opacity="1" fill="#efe212" fill-opacity="1"></use></g><g><use xlink:href="#a51USremC" opacity="1" fill="#000000" fill-opacity="1"></use></g></g></g></svg>